<?xml version="1.0"?><svg width="766.27948" height="350.40479" xmlns="http://www.w3.org/2000/svg">
 <title>brown ant</title>
 <metadata id="metadata9564">image/svg+xml</metadata>
 <g>
  <title>Layer 1</title>
  <path id="svg_1" fill="#bfbfbf" stroke="#b2b2b2" stroke-width="27.75494" stroke-miterlimit="4" d="m747.039307,150.23056c3.023743,41.076324 -56.452515,77.672546 -132.843811,81.739899c-76.391296,4.067383 -140.77002,-25.934326 -143.793793,-67.01062c-3.023712,-41.076332 56.452545,-77.672485 132.843842,-81.739876c76.391296,-4.067375 140.769958,25.934334 143.793762,67.010597z"/>
  <g id="g9487" transform="matrix(-0.85708099,0,0,0.85708099,214.89013741917853,749.9971182771906) ">
   <path fill="none" stroke="#000000" stroke-width="15.025741" stroke-linecap="round" stroke-linejoin="round" stroke-miterlimit="4" id="path9208-6" d="m-272.597961,-659.845276c92.482208,35.667847 74.943634,151.29834 74.943634,151.29834l41.851654,1.40094"/>
   <path fill="none" stroke="#000000" stroke-width="15.025741" stroke-linecap="round" stroke-linejoin="round" stroke-miterlimit="4" id="path9208-2-2" d="m-192.659332,-659.401062c92.482216,35.667847 74.943634,151.29837 74.943634,151.29837l41.851639,1.400909"/>
   <path fill="none" stroke="#000000" stroke-width="15.025741" stroke-linecap="round" stroke-linejoin="round" stroke-miterlimit="4" id="path9208-2-7-4" d="m-125.213501,-675.250549c92.482212,35.667847 74.943642,151.29834 74.943642,151.29834l41.85164,1.40094"/>
  </g>
  <path fill="#7f3f00" stroke="#000000" stroke-width="27.710974" stroke-miterlimit="4" id="path8672-1-3" d="m757.484985,159.316132c0.275024,54.075089 -67.035889,98.297577 -150.34314,98.773804c-83.307251,0.476196 -151.064087,-42.974243 -151.339172,-97.049286c-0.275055,-54.075043 67.035828,-98.297588 150.343079,-98.773781c83.307251,-0.476189 151.064148,42.974213 151.339233,97.049263z"/>
  <path fill="#7f3f00" stroke="#000000" stroke-width="27.75494" stroke-miterlimit="4" id="path8672-1" d="m460.638611,169.819611c2.43396,38.878067 -45.441681,73.515823 -106.933228,77.365524c-61.491547,3.849701 -113.313446,-24.546448 -115.747421,-63.424515c-2.433975,-38.878082 45.441666,-73.515793 106.933212,-77.365532c61.491547,-3.849701 113.313446,24.54644 115.747437,63.424522z"/>
  <path fill="none" stroke="#000000" stroke-width="15.025741" stroke-linecap="round" stroke-linejoin="round" stroke-miterlimit="4" d="m282.156982,212.709229c79.26474,30.570236 64.232758,129.674927 64.232758,129.674927l35.87027,1.200714" id="path9208"/>
  <path fill="none" stroke="#000000" stroke-width="15.025741" stroke-linecap="round" stroke-linejoin="round" stroke-miterlimit="4" d="m350.670868,213.090012c79.26474,30.570221 64.232758,129.674911 64.232758,129.674911l35.870239,1.200684" id="path9208-2"/>
  <path fill="none" stroke="#000000" stroke-width="15.025741" stroke-linecap="round" stroke-linejoin="round" stroke-miterlimit="4" d="m408.477386,199.505661c79.264771,30.570236 64.232788,129.674942 64.232788,129.674942l35.870239,1.200714" id="path9208-2-7"/>
  <path fill="#7f3f00" stroke="#000000" stroke-width="27.672583" stroke-miterlimit="4" id="path8672" d="m230.265274,241.320755c-43.467712,39.827408 -110.419228,43.295059 -149.540375,7.745239c-39.12117,-35.549713 -35.59763,-96.654999 7.870094,-136.482346c43.467674,-39.827339 110.419212,-43.295006 149.540382,-7.745247c39.121155,35.549767 35.597565,96.654991 -7.870102,136.482353z"/>
  <path fill="#ff0000" stroke="#000000" stroke-width="12.6375" stroke-miterlimit="4" d="m86.087891,206.574585c0,0 41.663651,33.330902 74.994583,0" id="path9254"/>
  <path fill="#000000" stroke="#000000" stroke-miterlimit="4" d="m196.960114,145.768585c0,9.774384 -6.698822,17.698059 -14.96228,17.698059c-8.263474,0 -14.962387,-7.923676 -14.962387,-17.698059c0,-9.774414 6.698914,-17.69809 14.962387,-17.69809c8.263458,0 14.96228,7.923676 14.96228,17.69809z" id="path8672-2"/>
  <g id="g9504" transform="matrix(1.1709343635228129,0,0,1.1709343635228129,322.12598447004234,942.8949156592288) ">
   <path fill="none" stroke="#000000" stroke-width="12.6375" stroke-linecap="round" stroke-miterlimit="4" id="path9300" d="m-121.560692,-707.264648c0,0 1.379875,-91.666626 108.333332,-91.666626"/>
   <path fill="none" stroke="#000000" stroke-width="12.6375" stroke-linecap="round" stroke-linejoin="round" stroke-miterlimit="4" id="path9300-0" d="m-160.449585,-707.264648c0,0 -1.379883,-91.666626 -108.333313,-91.666626"/>
  </g>
  <path fill="none" stroke="#000000" stroke-width="20.52" stroke-miterlimit="4" d="m714.748108,88.415527c-41.885742,34.426163 -63.068115,77.725174 -16.665466,149.989182" id="path9512"/>
  <path fill="none" stroke="#000000" stroke-width="20.52" stroke-miterlimit="4" d="m552.846863,70.595123c-41.816528,40.420784 -62.963928,91.259491 -16.637939,176.106903" id="path9512-5"/>
  <path fill="none" stroke="#000000" stroke-width="20.055861" stroke-linecap="round" stroke-miterlimit="4" d="m629.209595,66.846222c-42.163513,41.868484 -63.486389,94.528015 -16.776001,182.414337" id="path9512-5-8"/>
  <path fill="#000000" stroke="#000000" stroke-miterlimit="4" d="m128.682861,155.59523c0,9.774384 -6.69883,17.698059 -14.962288,17.698059c-8.263474,0 -14.962387,-7.923676 -14.962387,-17.698059c0,-9.774414 6.698914,-17.69809 14.962387,-17.69809c8.263458,0 14.962288,7.923676 14.962288,17.69809z" id="svg_2"/>
 </g>
</svg>